<mxfile host="65bd71144e">
    <diagram id="BAAsdl_GCiOIiazgw-eD" name="Mac">
        <mxGraphModel dx="1852" dy="869" grid="1" gridSize="10" guides="1" tooltips="1" connect="1" arrows="1" fold="1" page="1" pageScale="1" pageWidth="850" pageHeight="1100" background="#ffffff" math="0" shadow="0">
            <root>
                <mxCell id="0"/>
                <mxCell id="1" parent="0"/>
                <mxCell id="2" value="MAC" style="rounded=1;whiteSpace=wrap;html=1;" parent="1" vertex="1">
                    <mxGeometry x="161.56" y="360" width="120" height="70" as="geometry"/>
                </mxCell>
                <mxCell id="3" value="" style="endArrow=classic;html=1;" parent="1" edge="1">
                    <mxGeometry width="50" height="50" relative="1" as="geometry">
                        <mxPoint x="111.55999999999995" y="385" as="sourcePoint"/>
                        <mxPoint x="161.55999999999995" y="385" as="targetPoint"/>
                    </mxGeometry>
                </mxCell>
                <mxCell id="4" value="I0" style="edgeLabel;html=1;align=center;verticalAlign=middle;resizable=0;points=[];" parent="3" vertex="1" connectable="0">
                    <mxGeometry x="-0.2605" y="2" relative="1" as="geometry">
                        <mxPoint as="offset"/>
                    </mxGeometry>
                </mxCell>
                <mxCell id="5" value="" style="endArrow=classic;html=1;entryX=0;entryY=0.75;entryDx=0;entryDy=0;" parent="1" target="2" edge="1">
                    <mxGeometry width="50" height="50" relative="1" as="geometry">
                        <mxPoint x="96.55999999999995" y="413" as="sourcePoint"/>
                        <mxPoint x="146.56" y="410" as="targetPoint"/>
                    </mxGeometry>
                </mxCell>
                <mxCell id="6" value="i1" style="edgeLabel;html=1;align=center;verticalAlign=middle;resizable=0;points=[];" parent="5" vertex="1" connectable="0">
                    <mxGeometry x="-0.3629" y="-1" relative="1" as="geometry">
                        <mxPoint as="offset"/>
                    </mxGeometry>
                </mxCell>
                <mxCell id="7" value="" style="endArrow=classic;html=1;entryX=0.015;entryY=0.672;entryDx=0;entryDy=0;entryPerimeter=0;" parent="1" edge="1">
                    <mxGeometry width="50" height="50" relative="1" as="geometry">
                        <mxPoint x="281.55999999999995" y="390" as="sourcePoint"/>
                        <mxPoint x="348.35206376147994" y="390.32000000000005" as="targetPoint"/>
                    </mxGeometry>
                </mxCell>
                <mxCell id="8" value="Out 1" style="edgeLabel;html=1;align=center;verticalAlign=middle;resizable=0;points=[];" parent="7" vertex="1" connectable="0">
                    <mxGeometry x="-0.2653" y="3" relative="1" as="geometry">
                        <mxPoint y="-7" as="offset"/>
                    </mxGeometry>
                </mxCell>
                <mxCell id="9" value="" style="endArrow=classic;html=1;entryX=0.015;entryY=0.672;entryDx=0;entryDy=0;entryPerimeter=0;" parent="1" edge="1">
                    <mxGeometry width="50" height="50" relative="1" as="geometry">
                        <mxPoint x="281.55999999999995" y="410" as="sourcePoint"/>
                        <mxPoint x="348.35206376147994" y="410.32000000000005" as="targetPoint"/>
                    </mxGeometry>
                </mxCell>
                <mxCell id="10" value="Out 2" style="edgeLabel;html=1;align=center;verticalAlign=middle;resizable=0;points=[];" parent="9" vertex="1" connectable="0">
                    <mxGeometry x="-0.2651" y="1" relative="1" as="geometry">
                        <mxPoint x="5" y="11" as="offset"/>
                    </mxGeometry>
                </mxCell>
                <mxCell id="11" value="" style="endArrow=classic;html=1;entryX=0.015;entryY=0.672;entryDx=0;entryDy=0;entryPerimeter=0;fillColor=#e51400;strokeColor=#B20000;" parent="1" edge="1">
                    <mxGeometry width="50" height="50" relative="1" as="geometry">
                        <mxPoint x="81.55999999999995" y="399.52" as="sourcePoint"/>
                        <mxPoint x="161.55999999999995" y="399.84000000000003" as="targetPoint"/>
                    </mxGeometry>
                </mxCell>
                <mxCell id="12" value="Constant" style="edgeLabel;html=1;align=center;verticalAlign=middle;resizable=0;points=[];" parent="11" vertex="1" connectable="0">
                    <mxGeometry x="-0.3629" y="-1" relative="1" as="geometry">
                        <mxPoint x="-26" y="-11" as="offset"/>
                    </mxGeometry>
                </mxCell>
                <mxCell id="13" value="" style="shape=sumEllipse;perimeter=ellipsePerimeter;whiteSpace=wrap;html=1;backgroundOutline=1;" parent="1" vertex="1">
                    <mxGeometry x="60" y="660" width="40" height="40" as="geometry"/>
                </mxCell>
                <mxCell id="14" value="Mux" style="shape=trapezoid;perimeter=trapezoidPerimeter;whiteSpace=wrap;html=1;fixedSize=1;direction=south;" parent="1" vertex="1">
                    <mxGeometry x="-133.2" y="520" width="60" height="300" as="geometry"/>
                </mxCell>
                <mxCell id="15" value="" style="endArrow=classic;html=1;entryX=0;entryY=0.25;entryDx=0;entryDy=0;" parent="1" edge="1">
                    <mxGeometry width="50" height="50" relative="1" as="geometry">
                        <mxPoint x="-200.00000000000023" y="544.9999999999998" as="sourcePoint"/>
                        <mxPoint x="-135.00000000000023" y="544.9999999999998" as="targetPoint"/>
                    </mxGeometry>
                </mxCell>
                <mxCell id="16" value="W0_R" style="edgeLabel;html=1;align=center;verticalAlign=middle;resizable=0;points=[];" parent="15" vertex="1" connectable="0">
                    <mxGeometry x="-0.2605" y="2" relative="1" as="geometry">
                        <mxPoint y="-8" as="offset"/>
                    </mxGeometry>
                </mxCell>
                <mxCell id="17" value="" style="endArrow=classic;html=1;entryX=0.015;entryY=0.672;entryDx=0;entryDy=0;entryPerimeter=0;" parent="1" edge="1">
                    <mxGeometry width="50" height="50" relative="1" as="geometry">
                        <mxPoint x="-200.00000000000023" y="569.9999999999998" as="sourcePoint"/>
                        <mxPoint x="-133.20000000000005" y="570.3200000000002" as="targetPoint"/>
                        <Array as="points">
                            <mxPoint x="-160" y="570"/>
                        </Array>
                    </mxGeometry>
                </mxCell>
                <mxCell id="18" value="i2_R" style="edgeLabel;html=1;align=center;verticalAlign=middle;resizable=0;points=[];" parent="17" vertex="1" connectable="0">
                    <mxGeometry x="-0.3629" y="-1" relative="1" as="geometry">
                        <mxPoint x="6" y="-11" as="offset"/>
                    </mxGeometry>
                </mxCell>
                <mxCell id="19" value="" style="endArrow=classic;html=1;entryX=0;entryY=0.25;entryDx=0;entryDy=0;" parent="1" edge="1">
                    <mxGeometry width="50" height="50" relative="1" as="geometry">
                        <mxPoint x="-199.9920637614798" y="604.9999999999998" as="sourcePoint"/>
                        <mxPoint x="-134.9920637614798" y="604.9999999999998" as="targetPoint"/>
                    </mxGeometry>
                </mxCell>
                <mxCell id="20" value="- W0_I" style="edgeLabel;html=1;align=center;verticalAlign=middle;resizable=0;points=[];" parent="19" vertex="1" connectable="0">
                    <mxGeometry x="-0.2605" y="2" relative="1" as="geometry">
                        <mxPoint y="-8" as="offset"/>
                    </mxGeometry>
                </mxCell>
                <mxCell id="21" value="" style="endArrow=classic;html=1;entryX=0.015;entryY=0.672;entryDx=0;entryDy=0;entryPerimeter=0;" parent="1" edge="1">
                    <mxGeometry width="50" height="50" relative="1" as="geometry">
                        <mxPoint x="-199.9920637614798" y="630" as="sourcePoint"/>
                        <mxPoint x="-133.20000000000005" y="630.3200000000002" as="targetPoint"/>
                        <Array as="points">
                            <mxPoint x="-160" y="630"/>
                        </Array>
                    </mxGeometry>
                </mxCell>
                <mxCell id="22" value="i2_I" style="edgeLabel;html=1;align=center;verticalAlign=middle;resizable=0;points=[];" parent="21" vertex="1" connectable="0">
                    <mxGeometry x="-0.3629" y="-1" relative="1" as="geometry">
                        <mxPoint x="6" y="-11" as="offset"/>
                    </mxGeometry>
                </mxCell>
                <mxCell id="23" value="" style="endArrow=classic;html=1;entryX=0.015;entryY=0.672;entryDx=0;entryDy=0;entryPerimeter=0;" parent="1" edge="1">
                    <mxGeometry width="50" height="50" relative="1" as="geometry">
                        <mxPoint x="-199.9920637614798" y="697.29" as="sourcePoint"/>
                        <mxPoint x="-133.20000000000005" y="697.6100000000001" as="targetPoint"/>
                        <Array as="points">
                            <mxPoint x="-160" y="697.29"/>
                        </Array>
                    </mxGeometry>
                </mxCell>
                <mxCell id="24" value="i2_R" style="edgeLabel;html=1;align=center;verticalAlign=middle;resizable=0;points=[];" parent="23" vertex="1" connectable="0">
                    <mxGeometry x="-0.3629" y="-1" relative="1" as="geometry">
                        <mxPoint x="6" y="-11" as="offset"/>
                    </mxGeometry>
                </mxCell>
                <mxCell id="25" value="" style="endArrow=classic;html=1;entryX=0;entryY=0.25;entryDx=0;entryDy=0;" parent="1" edge="1">
                    <mxGeometry width="50" height="50" relative="1" as="geometry">
                        <mxPoint x="-199.9920637614798" y="745" as="sourcePoint"/>
                        <mxPoint x="-134.9920637614798" y="745" as="targetPoint"/>
                    </mxGeometry>
                </mxCell>
                <mxCell id="26" value="W0_R" style="edgeLabel;html=1;align=center;verticalAlign=middle;resizable=0;points=[];" parent="25" vertex="1" connectable="0">
                    <mxGeometry x="-0.2605" y="2" relative="1" as="geometry">
                        <mxPoint y="-8" as="offset"/>
                    </mxGeometry>
                </mxCell>
                <mxCell id="27" value="" style="endArrow=classic;html=1;entryX=0.015;entryY=0.672;entryDx=0;entryDy=0;entryPerimeter=0;" parent="1" edge="1">
                    <mxGeometry width="50" height="50" relative="1" as="geometry">
                        <mxPoint x="-199.9920637614798" y="769.9999999999999" as="sourcePoint"/>
                        <mxPoint x="-133.20000000000005" y="770.32" as="targetPoint"/>
                        <Array as="points">
                            <mxPoint x="-160" y="770"/>
                        </Array>
                    </mxGeometry>
                </mxCell>
                <mxCell id="28" value="I2_I" style="edgeLabel;html=1;align=center;verticalAlign=middle;resizable=0;points=[];" parent="27" vertex="1" connectable="0">
                    <mxGeometry x="-0.3629" y="-1" relative="1" as="geometry">
                        <mxPoint x="6" y="-11" as="offset"/>
                    </mxGeometry>
                </mxCell>
                <mxCell id="29" value="Sel[1:0]" style="shape=singleArrow;direction=north;whiteSpace=wrap;html=1;fillColor=#d80073;fontColor=#ffffff;strokeColor=#A50040;arrowWidth=0.24255072463768557;arrowSize=0.22274247491638666;" parent="1" vertex="1">
                    <mxGeometry x="-115.7" y="810" width="25" height="65" as="geometry"/>
                </mxCell>
                <mxCell id="30" value="" style="endArrow=classic;html=1;entryX=0;entryY=0.25;entryDx=0;entryDy=0;" parent="1" edge="1">
                    <mxGeometry width="50" height="50" relative="1" as="geometry">
                        <mxPoint x="-198.20206376147974" y="669.9999999999998" as="sourcePoint"/>
                        <mxPoint x="-133.20206376147974" y="669.9999999999998" as="targetPoint"/>
                    </mxGeometry>
                </mxCell>
                <mxCell id="31" value="W0_I" style="edgeLabel;html=1;align=center;verticalAlign=middle;resizable=0;points=[];" parent="30" vertex="1" connectable="0">
                    <mxGeometry x="-0.2605" y="2" relative="1" as="geometry">
                        <mxPoint y="-8" as="offset"/>
                    </mxGeometry>
                </mxCell>
                <mxCell id="32" value="" style="endArrow=classic;html=1;entryX=0.075;entryY=0.3;entryDx=0;entryDy=0;entryPerimeter=0;" parent="1" target="13" edge="1">
                    <mxGeometry width="50" height="50" relative="1" as="geometry">
                        <mxPoint x="-73.20000000000005" y="670" as="sourcePoint"/>
                        <mxPoint x="-23.2" y="670" as="targetPoint"/>
                    </mxGeometry>
                </mxCell>
                <mxCell id="33" value="Out1" style="edgeLabel;html=1;align=center;verticalAlign=middle;resizable=0;points=[];" parent="32" vertex="1" connectable="0">
                    <mxGeometry x="-0.2605" y="2" relative="1" as="geometry">
                        <mxPoint as="offset"/>
                    </mxGeometry>
                </mxCell>
                <mxCell id="34" value="" style="endArrow=classic;html=1;entryX=0.058;entryY=0.758;entryDx=0;entryDy=0;entryPerimeter=0;" parent="1" target="13" edge="1">
                    <mxGeometry width="50" height="50" relative="1" as="geometry">
                        <mxPoint x="-73.20000000000005" y="689.71" as="sourcePoint"/>
                        <mxPoint x="-23.2" y="689.71" as="targetPoint"/>
                    </mxGeometry>
                </mxCell>
                <mxCell id="35" value="Out2" style="edgeLabel;html=1;align=center;verticalAlign=middle;resizable=0;points=[];" parent="34" vertex="1" connectable="0">
                    <mxGeometry x="-0.2605" y="2" relative="1" as="geometry">
                        <mxPoint as="offset"/>
                    </mxGeometry>
                </mxCell>
                <mxCell id="36" value="" style="endArrow=classic;html=1;exitX=1;exitY=0.5;exitDx=0;exitDy=0;" parent="1" source="13" edge="1">
                    <mxGeometry width="50" height="50" relative="1" as="geometry">
                        <mxPoint x="104.99999999999977" y="679.83" as="sourcePoint"/>
                        <mxPoint x="154.99999999999977" y="679.83" as="targetPoint"/>
                    </mxGeometry>
                </mxCell>
                <mxCell id="37" value="MUL_Result" style="edgeLabel;html=1;align=center;verticalAlign=middle;resizable=0;points=[];" parent="36" vertex="1" connectable="0">
                    <mxGeometry x="-0.2605" y="2" relative="1" as="geometry">
                        <mxPoint x="10" y="12" as="offset"/>
                    </mxGeometry>
                </mxCell>
                <mxCell id="38" value="" style="shape=cross;whiteSpace=wrap;html=1;" parent="1" vertex="1">
                    <mxGeometry x="240" y="610" width="20" height="20" as="geometry"/>
                </mxCell>
                <mxCell id="39" value="" style="ellipse;whiteSpace=wrap;html=1;aspect=fixed;fillColor=none;" parent="1" vertex="1">
                    <mxGeometry x="235" y="605" width="30" height="30" as="geometry"/>
                </mxCell>
                <mxCell id="40" value="" style="ellipse;whiteSpace=wrap;html=1;aspect=fixed;fillColor=none;" parent="1" vertex="1">
                    <mxGeometry x="235" y="700" width="30" height="30" as="geometry"/>
                </mxCell>
                <mxCell id="41" value="" style="endArrow=classic;html=1;entryX=0;entryY=0.25;entryDx=0;entryDy=0;exitX=0.567;exitY=-0.04;exitDx=0;exitDy=0;exitPerimeter=0;" parent="1" source="57" edge="1">
                    <mxGeometry width="50" height="50" relative="1" as="geometry">
                        <mxPoint x="170" y="610" as="sourcePoint"/>
                        <mxPoint x="235" y="610" as="targetPoint"/>
                    </mxGeometry>
                </mxCell>
                <mxCell id="42" value="" style="edgeStyle=segmentEdgeStyle;endArrow=classic;html=1;entryX=0.032;entryY=0.706;entryDx=0;entryDy=0;entryPerimeter=0;" parent="1" target="39" edge="1">
                    <mxGeometry width="50" height="50" relative="1" as="geometry">
                        <mxPoint x="160" y="680" as="sourcePoint"/>
                        <mxPoint x="229" y="641" as="targetPoint"/>
                        <Array as="points">
                            <mxPoint x="170" y="680"/>
                            <mxPoint x="170" y="626"/>
                        </Array>
                    </mxGeometry>
                </mxCell>
                <mxCell id="43" value="" style="edgeStyle=segmentEdgeStyle;endArrow=classic;html=1;entryX=0;entryY=0;entryDx=0;entryDy=0;" parent="1" target="44" edge="1">
                    <mxGeometry width="50" height="50" relative="1" as="geometry">
                        <mxPoint x="160" y="680" as="sourcePoint"/>
                        <mxPoint x="230" y="710" as="targetPoint"/>
                        <Array as="points">
                            <mxPoint x="170" y="680"/>
                            <mxPoint x="170" y="710"/>
                        </Array>
                    </mxGeometry>
                </mxCell>
                <mxCell id="44" value="" style="rounded=0;whiteSpace=wrap;html=1;" parent="1" vertex="1">
                    <mxGeometry x="240" y="710" width="20" height="10" as="geometry"/>
                </mxCell>
                <mxCell id="45" value="" style="endArrow=classic;html=1;entryX=0;entryY=0.5;entryDx=0;entryDy=0;exitX=1;exitY=0.5;exitDx=0;exitDy=0;" parent="1" source="39" target="54" edge="1">
                    <mxGeometry width="50" height="50" relative="1" as="geometry">
                        <mxPoint x="260" y="644.6600000000001" as="sourcePoint"/>
                        <mxPoint x="326.79206376147" y="644.98" as="targetPoint"/>
                    </mxGeometry>
                </mxCell>
                <mxCell id="46" value="Out 1" style="edgeLabel;html=1;align=center;verticalAlign=middle;resizable=0;points=[];" parent="45" vertex="1" connectable="0">
                    <mxGeometry x="-0.2653" y="3" relative="1" as="geometry">
                        <mxPoint y="-7" as="offset"/>
                    </mxGeometry>
                </mxCell>
                <mxCell id="47" value="" style="endArrow=classic;html=1;entryX=0;entryY=0.5;entryDx=0;entryDy=0;" parent="1" target="50" edge="1">
                    <mxGeometry width="50" height="50" relative="1" as="geometry">
                        <mxPoint x="265" y="714.66" as="sourcePoint"/>
                        <mxPoint x="331.79206376147" y="714.98" as="targetPoint"/>
                    </mxGeometry>
                </mxCell>
                <mxCell id="48" value="Out 2" style="edgeLabel;html=1;align=center;verticalAlign=middle;resizable=0;points=[];" parent="47" vertex="1" connectable="0">
                    <mxGeometry x="-0.2651" y="1" relative="1" as="geometry">
                        <mxPoint x="5" y="11" as="offset"/>
                    </mxGeometry>
                </mxCell>
                <mxCell id="49" style="edgeStyle=none;html=1;entryX=0;entryY=0.5;entryDx=0;entryDy=0;exitX=1;exitY=0.5;exitDx=0;exitDy=0;" parent="1" source="50" target="75" edge="1">
                    <mxGeometry relative="1" as="geometry">
                        <Array as="points">
                            <mxPoint x="450" y="715"/>
                            <mxPoint x="450" y="780"/>
                            <mxPoint x="570" y="780"/>
                            <mxPoint x="570" y="748"/>
                        </Array>
                    </mxGeometry>
                </mxCell>
                <mxCell id="50" value="ACC_2_R" style="shape=ext;double=1;rounded=1;whiteSpace=wrap;html=1;" parent="1" vertex="1">
                    <mxGeometry x="350" y="682.5" width="60" height="65" as="geometry"/>
                </mxCell>
                <mxCell id="51" value="" style="edgeStyle=elbowEdgeStyle;elbow=vertical;endArrow=classic;html=1;fillColor=#e51400;strokeColor=#B20000;strokeWidth=3;entryX=0.5;entryY=1;entryDx=0;entryDy=0;" parent="1" target="50" edge="1">
                    <mxGeometry width="50" height="50" relative="1" as="geometry">
                        <mxPoint x="330" y="840" as="sourcePoint"/>
                        <mxPoint x="380" y="760" as="targetPoint"/>
                        <Array as="points">
                            <mxPoint x="380" y="800"/>
                        </Array>
                    </mxGeometry>
                </mxCell>
                <mxCell id="52" style="edgeStyle=none;html=1;strokeWidth=1;entryX=0.2;entryY=1.024;entryDx=0;entryDy=0;entryPerimeter=0;" parent="1" source="54" target="57" edge="1">
                    <mxGeometry relative="1" as="geometry">
                        <mxPoint x="10" y="600" as="targetPoint"/>
                        <Array as="points">
                            <mxPoint x="430" y="620"/>
                            <mxPoint x="430" y="550"/>
                            <mxPoint y="550"/>
                            <mxPoint y="578"/>
                        </Array>
                    </mxGeometry>
                </mxCell>
                <mxCell id="53" style="edgeStyle=none;html=1;entryX=0;entryY=0.5;entryDx=0;entryDy=0;exitX=1;exitY=0.5;exitDx=0;exitDy=0;" parent="1" source="54" target="77" edge="1">
                    <mxGeometry relative="1" as="geometry">
                        <Array as="points">
                            <mxPoint x="440" y="620"/>
                            <mxPoint x="440" y="500"/>
                        </Array>
                    </mxGeometry>
                </mxCell>
                <mxCell id="54" value="ACC_1_R" style="shape=ext;double=1;rounded=1;whiteSpace=wrap;html=1;" parent="1" vertex="1">
                    <mxGeometry x="350" y="590" width="60" height="60" as="geometry"/>
                </mxCell>
                <mxCell id="55" value="" style="edgeStyle=elbowEdgeStyle;elbow=vertical;endArrow=classic;html=1;fillColor=#e51400;strokeColor=#B20000;strokeWidth=3;entryX=0.5;entryY=1;entryDx=0;entryDy=0;" parent="1" target="54" edge="1">
                    <mxGeometry width="50" height="50" relative="1" as="geometry">
                        <mxPoint x="330" y="950" as="sourcePoint"/>
                        <mxPoint x="380" y="660" as="targetPoint"/>
                        <Array as="points">
                            <mxPoint x="350" y="670"/>
                            <mxPoint x="350" y="680"/>
                        </Array>
                    </mxGeometry>
                </mxCell>
                <mxCell id="56" value="Sel[1]" style="edgeLabel;html=1;align=center;verticalAlign=middle;resizable=0;points=[];" parent="55" vertex="1" connectable="0">
                    <mxGeometry x="-0.7874" y="2" relative="1" as="geometry">
                        <mxPoint as="offset"/>
                    </mxGeometry>
                </mxCell>
                <mxCell id="57" value="Mux" style="shape=trapezoid;perimeter=trapezoidPerimeter;whiteSpace=wrap;html=1;fixedSize=1;direction=south;" parent="1" vertex="1">
                    <mxGeometry x="55" y="560" width="25" height="90" as="geometry"/>
                </mxCell>
                <mxCell id="58" value="" style="endArrow=classic;html=1;" parent="1" edge="1">
                    <mxGeometry width="50" height="50" relative="1" as="geometry">
                        <mxPoint x="-10" y="620" as="sourcePoint"/>
                        <mxPoint x="55.00000000000023" y="619.71" as="targetPoint"/>
                    </mxGeometry>
                </mxCell>
                <mxCell id="59" value="I0" style="edgeLabel;html=1;align=center;verticalAlign=middle;resizable=0;points=[];" parent="58" vertex="1" connectable="0">
                    <mxGeometry x="-0.2605" y="2" relative="1" as="geometry">
                        <mxPoint as="offset"/>
                    </mxGeometry>
                </mxCell>
                <mxCell id="60" style="edgeStyle=none;html=1;entryX=0;entryY=0.5;entryDx=0;entryDy=0;" parent="1" target="74" edge="1">
                    <mxGeometry relative="1" as="geometry">
                        <mxPoint x="520" y="720" as="sourcePoint"/>
                        <Array as="points">
                            <mxPoint x="580" y="720"/>
                            <mxPoint x="580" y="843"/>
                        </Array>
                    </mxGeometry>
                </mxCell>
                <mxCell id="61" value="ACC_2_I" style="shape=ext;double=1;rounded=1;whiteSpace=wrap;html=1;" parent="1" vertex="1">
                    <mxGeometry x="460" y="682.5" width="60" height="65" as="geometry"/>
                </mxCell>
                <mxCell id="62" value="" style="edgeStyle=elbowEdgeStyle;elbow=vertical;endArrow=classic;html=1;fillColor=#e51400;strokeColor=#B20000;strokeWidth=3;entryX=0.5;entryY=1;entryDx=0;entryDy=0;" parent="1" target="61" edge="1">
                    <mxGeometry width="50" height="50" relative="1" as="geometry">
                        <mxPoint x="440" y="840" as="sourcePoint"/>
                        <mxPoint x="490" y="760" as="targetPoint"/>
                        <Array as="points">
                            <mxPoint x="490" y="800"/>
                        </Array>
                    </mxGeometry>
                </mxCell>
                <mxCell id="63" style="edgeStyle=none;html=1;" parent="1" source="64" target="76" edge="1">
                    <mxGeometry relative="1" as="geometry"/>
                </mxCell>
                <mxCell id="64" value="ACC_1_I" style="shape=ext;double=1;rounded=1;whiteSpace=wrap;html=1;" parent="1" vertex="1">
                    <mxGeometry x="460" y="590" width="60" height="60" as="geometry"/>
                </mxCell>
                <mxCell id="65" value="" style="edgeStyle=elbowEdgeStyle;elbow=vertical;endArrow=classic;html=1;fillColor=#e51400;strokeColor=#B20000;strokeWidth=3;entryX=0.5;entryY=1;entryDx=0;entryDy=0;" parent="1" target="64" edge="1">
                    <mxGeometry width="50" height="50" relative="1" as="geometry">
                        <mxPoint x="440" y="950" as="sourcePoint"/>
                        <mxPoint x="490" y="660" as="targetPoint"/>
                        <Array as="points">
                            <mxPoint x="460" y="670"/>
                            <mxPoint x="460" y="680"/>
                        </Array>
                    </mxGeometry>
                </mxCell>
                <mxCell id="66" value="!Sel[1]" style="edgeLabel;html=1;align=center;verticalAlign=middle;resizable=0;points=[];" parent="65" vertex="1" connectable="0">
                    <mxGeometry x="-0.8235" y="-1" relative="1" as="geometry">
                        <mxPoint as="offset"/>
                    </mxGeometry>
                </mxCell>
                <mxCell id="67" style="edgeStyle=none;html=1;entryX=0;entryY=1;entryDx=0;entryDy=0;strokeWidth=1;exitX=0.444;exitY=0;exitDx=0;exitDy=0;exitPerimeter=0;" parent="1" source="68" target="40" edge="1">
                    <mxGeometry relative="1" as="geometry">
                        <Array as="points">
                            <mxPoint x="200" y="760"/>
                            <mxPoint x="200" y="726"/>
                        </Array>
                    </mxGeometry>
                </mxCell>
                <mxCell id="68" value="Mux" style="shape=trapezoid;perimeter=trapezoidPerimeter;whiteSpace=wrap;html=1;fixedSize=1;direction=south;" parent="1" vertex="1">
                    <mxGeometry x="55" y="720" width="25" height="90" as="geometry"/>
                </mxCell>
                <mxCell id="69" value="" style="endArrow=classic;html=1;" parent="1" edge="1">
                    <mxGeometry width="50" height="50" relative="1" as="geometry">
                        <mxPoint x="-10" y="740.29" as="sourcePoint"/>
                        <mxPoint x="55.00000000000023" y="740" as="targetPoint"/>
                    </mxGeometry>
                </mxCell>
                <mxCell id="70" value="I0" style="edgeLabel;html=1;align=center;verticalAlign=middle;resizable=0;points=[];" parent="69" vertex="1" connectable="0">
                    <mxGeometry x="-0.2605" y="2" relative="1" as="geometry">
                        <mxPoint as="offset"/>
                    </mxGeometry>
                </mxCell>
                <mxCell id="71" style="edgeStyle=none;html=1;strokeWidth=1;entryX=0.44;entryY=1.12;entryDx=0;entryDy=0;entryPerimeter=0;" parent="1" target="57" edge="1">
                    <mxGeometry relative="1" as="geometry">
                        <mxPoint x="164.4000000000001" y="578" as="targetPoint"/>
                        <mxPoint x="520" y="620" as="sourcePoint"/>
                        <Array as="points">
                            <mxPoint x="540" y="620"/>
                            <mxPoint x="540" y="520"/>
                            <mxPoint x="-40" y="520"/>
                            <mxPoint x="-40" y="600"/>
                        </Array>
                    </mxGeometry>
                </mxCell>
                <mxCell id="72" style="edgeStyle=none;html=1;strokeWidth=1;entryX=0.75;entryY=1;entryDx=0;entryDy=0;" parent="1" target="68" edge="1">
                    <mxGeometry relative="1" as="geometry">
                        <mxPoint x="50" y="760" as="targetPoint"/>
                        <mxPoint x="410" y="720" as="sourcePoint"/>
                        <Array as="points">
                            <mxPoint x="430" y="720"/>
                            <mxPoint x="430" y="840"/>
                            <mxPoint x="30" y="840"/>
                            <mxPoint x="30" y="788"/>
                        </Array>
                    </mxGeometry>
                </mxCell>
                <mxCell id="73" style="edgeStyle=none;html=1;strokeWidth=1;entryX=0.556;entryY=0.933;entryDx=0;entryDy=0;entryPerimeter=0;" parent="1" target="68" edge="1">
                    <mxGeometry relative="1" as="geometry">
                        <mxPoint x="50" y="770" as="targetPoint"/>
                        <mxPoint x="520" y="720" as="sourcePoint"/>
                        <Array as="points">
                            <mxPoint x="540" y="720"/>
                            <mxPoint x="540" y="880"/>
                            <mxPoint y="880"/>
                            <mxPoint y="770"/>
                        </Array>
                    </mxGeometry>
                </mxCell>
                <mxCell id="74" value="Out_2_I" style="shape=ext;double=1;rounded=1;whiteSpace=wrap;html=1;" parent="1" vertex="1">
                    <mxGeometry x="610" y="810" width="60" height="65" as="geometry"/>
                </mxCell>
                <mxCell id="75" value="Out_2_R" style="shape=ext;double=1;rounded=1;whiteSpace=wrap;html=1;" parent="1" vertex="1">
                    <mxGeometry x="610" y="717.5" width="60" height="60" as="geometry"/>
                </mxCell>
                <mxCell id="76" value="Out_1_I" style="shape=ext;double=1;rounded=1;whiteSpace=wrap;html=1;" parent="1" vertex="1">
                    <mxGeometry x="610" y="585" width="60" height="65" as="geometry"/>
                </mxCell>
                <mxCell id="77" value="Out_1_R" style="shape=ext;double=1;rounded=1;whiteSpace=wrap;html=1;" parent="1" vertex="1">
                    <mxGeometry x="610" y="470" width="60" height="60" as="geometry"/>
                </mxCell>
                <mxCell id="78" value="" style="edgeStyle=elbowEdgeStyle;elbow=vertical;endArrow=classic;html=1;fillColor=#e51400;strokeColor=#B20000;strokeWidth=3;entryX=0.5;entryY=1;entryDx=0;entryDy=0;" parent="1" target="77" edge="1">
                    <mxGeometry width="50" height="50" relative="1" as="geometry">
                        <mxPoint x="720" y="890" as="sourcePoint"/>
                        <mxPoint x="820" y="597.5" as="targetPoint"/>
                        <Array as="points">
                            <mxPoint x="690" y="570"/>
                            <mxPoint x="760" y="570"/>
                            <mxPoint x="690" y="570"/>
                            <mxPoint x="790" y="627.5"/>
                        </Array>
                    </mxGeometry>
                </mxCell>
                <mxCell id="79" value="" style="edgeStyle=elbowEdgeStyle;elbow=vertical;endArrow=classic;html=1;fillColor=#e51400;strokeColor=#B20000;strokeWidth=3;entryX=0.5;entryY=1;entryDx=0;entryDy=0;" parent="1" edge="1">
                    <mxGeometry width="50" height="50" relative="1" as="geometry">
                        <mxPoint x="720" y="950" as="sourcePoint"/>
                        <mxPoint x="640" y="650" as="targetPoint"/>
                        <Array as="points">
                            <mxPoint x="680" y="680"/>
                            <mxPoint x="610" y="680"/>
                        </Array>
                    </mxGeometry>
                </mxCell>
                <mxCell id="80" value="" style="edgeStyle=elbowEdgeStyle;elbow=vertical;endArrow=classic;html=1;fillColor=#e51400;strokeColor=#B20000;strokeWidth=3;entryX=0.5;entryY=1;entryDx=0;entryDy=0;" parent="1" edge="1">
                    <mxGeometry width="50" height="50" relative="1" as="geometry">
                        <mxPoint x="720" y="950" as="sourcePoint"/>
                        <mxPoint x="640" y="769.9999999999999" as="targetPoint"/>
                        <Array as="points">
                            <mxPoint x="680" y="800"/>
                            <mxPoint x="610" y="800"/>
                        </Array>
                    </mxGeometry>
                </mxCell>
                <mxCell id="81" value="" style="edgeStyle=elbowEdgeStyle;elbow=vertical;endArrow=classic;html=1;fillColor=#e51400;strokeColor=#B20000;strokeWidth=3;entryX=0.5;entryY=1;entryDx=0;entryDy=0;" parent="1" edge="1">
                    <mxGeometry width="50" height="50" relative="1" as="geometry">
                        <mxPoint x="720" y="950" as="sourcePoint"/>
                        <mxPoint x="640" y="875" as="targetPoint"/>
                        <Array as="points">
                            <mxPoint x="680" y="905"/>
                            <mxPoint x="610" y="905"/>
                        </Array>
                    </mxGeometry>
                </mxCell>
                <mxCell id="82" value="Sel[2]" style="edgeLabel;html=1;align=center;verticalAlign=middle;resizable=0;points=[];" parent="81" vertex="1" connectable="0">
                    <mxGeometry x="0.1252" y="-2" relative="1" as="geometry">
                        <mxPoint as="offset"/>
                    </mxGeometry>
                </mxCell>
            </root>
        </mxGraphModel>
    </diagram>
    <diagram id="ptmZm7aKIZPT53kMSMQC" name="Stage">
        <mxGraphModel dx="787" dy="683" grid="1" gridSize="10" guides="1" tooltips="1" connect="1" arrows="1" fold="1" page="1" pageScale="1" pageWidth="850" pageHeight="1100" math="0" shadow="0">
            <root>
                <mxCell id="5QfAQHvZaw_K1XTAmvA8-0"/>
                <mxCell id="5QfAQHvZaw_K1XTAmvA8-1" parent="5QfAQHvZaw_K1XTAmvA8-0"/>
                <mxCell id="5QfAQHvZaw_K1XTAmvA8-2" value="MAC1" style="rounded=1;whiteSpace=wrap;html=1;" vertex="1" parent="5QfAQHvZaw_K1XTAmvA8-1">
                    <mxGeometry x="150" y="360" width="120" height="60" as="geometry"/>
                </mxCell>
                <mxCell id="5QfAQHvZaw_K1XTAmvA8-3" value="MAC2" style="rounded=1;whiteSpace=wrap;html=1;" vertex="1" parent="5QfAQHvZaw_K1XTAmvA8-1">
                    <mxGeometry x="150" y="460" width="120" height="60" as="geometry"/>
                </mxCell>
                <mxCell id="5QfAQHvZaw_K1XTAmvA8-4" value="MAC3" style="rounded=1;whiteSpace=wrap;html=1;" vertex="1" parent="5QfAQHvZaw_K1XTAmvA8-1">
                    <mxGeometry x="150" y="560" width="120" height="60" as="geometry"/>
                </mxCell>
                <mxCell id="5QfAQHvZaw_K1XTAmvA8-5" value="MAC4" style="rounded=1;whiteSpace=wrap;html=1;" vertex="1" parent="5QfAQHvZaw_K1XTAmvA8-1">
                    <mxGeometry x="150" y="660" width="120" height="60" as="geometry"/>
                </mxCell>
                <mxCell id="5QfAQHvZaw_K1XTAmvA8-6" value="MAC5" style="rounded=1;whiteSpace=wrap;html=1;" vertex="1" parent="5QfAQHvZaw_K1XTAmvA8-1">
                    <mxGeometry x="150" y="760" width="120" height="60" as="geometry"/>
                </mxCell>
                <mxCell id="5QfAQHvZaw_K1XTAmvA8-7" value="MAC6" style="rounded=1;whiteSpace=wrap;html=1;" vertex="1" parent="5QfAQHvZaw_K1XTAmvA8-1">
                    <mxGeometry x="150" y="860" width="120" height="60" as="geometry"/>
                </mxCell>
                <mxCell id="5QfAQHvZaw_K1XTAmvA8-8" value="MAC7" style="rounded=1;whiteSpace=wrap;html=1;" vertex="1" parent="5QfAQHvZaw_K1XTAmvA8-1">
                    <mxGeometry x="150" y="960" width="120" height="60" as="geometry"/>
                </mxCell>
                <mxCell id="5QfAQHvZaw_K1XTAmvA8-9" value="MAC8" style="rounded=1;whiteSpace=wrap;html=1;" vertex="1" parent="5QfAQHvZaw_K1XTAmvA8-1">
                    <mxGeometry x="150" y="1060" width="120" height="60" as="geometry"/>
                </mxCell>
                <mxCell id="5QfAQHvZaw_K1XTAmvA8-10" value="MAC9" style="rounded=1;whiteSpace=wrap;html=1;" vertex="1" parent="5QfAQHvZaw_K1XTAmvA8-1">
                    <mxGeometry x="150" y="1160" width="120" height="60" as="geometry"/>
                </mxCell>
                <mxCell id="5QfAQHvZaw_K1XTAmvA8-11" value="" style="edgeStyle=none;html=1;" edge="1" parent="5QfAQHvZaw_K1XTAmvA8-1" source="5QfAQHvZaw_K1XTAmvA8-12">
                    <mxGeometry relative="1" as="geometry">
                        <mxPoint x="210" y="1400" as="targetPoint"/>
                    </mxGeometry>
                </mxCell>
                <mxCell id="5QfAQHvZaw_K1XTAmvA8-12" value="MAC10" style="rounded=1;whiteSpace=wrap;html=1;" vertex="1" parent="5QfAQHvZaw_K1XTAmvA8-1">
                    <mxGeometry x="150" y="1260" width="120" height="60" as="geometry"/>
                </mxCell>
                <mxCell id="5QfAQHvZaw_K1XTAmvA8-13" value="MAC11" style="rounded=1;whiteSpace=wrap;html=1;" vertex="1" parent="5QfAQHvZaw_K1XTAmvA8-1">
                    <mxGeometry x="150" y="1360" width="120" height="60" as="geometry"/>
                </mxCell>
                <mxCell id="5QfAQHvZaw_K1XTAmvA8-14" value="MAC12" style="rounded=1;whiteSpace=wrap;html=1;" vertex="1" parent="5QfAQHvZaw_K1XTAmvA8-1">
                    <mxGeometry x="150" y="1460" width="120" height="60" as="geometry"/>
                </mxCell>
                <mxCell id="5QfAQHvZaw_K1XTAmvA8-15" value="MAC13" style="rounded=1;whiteSpace=wrap;html=1;" vertex="1" parent="5QfAQHvZaw_K1XTAmvA8-1">
                    <mxGeometry x="150" y="1560" width="120" height="60" as="geometry"/>
                </mxCell>
                <mxCell id="5QfAQHvZaw_K1XTAmvA8-16" value="MAC14" style="rounded=1;whiteSpace=wrap;html=1;" vertex="1" parent="5QfAQHvZaw_K1XTAmvA8-1">
                    <mxGeometry x="150" y="1660" width="120" height="60" as="geometry"/>
                </mxCell>
                <mxCell id="5QfAQHvZaw_K1XTAmvA8-17" value="MAC15" style="rounded=1;whiteSpace=wrap;html=1;" vertex="1" parent="5QfAQHvZaw_K1XTAmvA8-1">
                    <mxGeometry x="150" y="1760" width="120" height="60" as="geometry"/>
                </mxCell>
                <mxCell id="5QfAQHvZaw_K1XTAmvA8-18" value="MAC16" style="rounded=1;whiteSpace=wrap;html=1;" vertex="1" parent="5QfAQHvZaw_K1XTAmvA8-1">
                    <mxGeometry x="150" y="1860" width="120" height="60" as="geometry"/>
                </mxCell>
            </root>
        </mxGraphModel>
    </diagram>
    <diagram id="CRUWWIFfwHI8vBYmJKUv" name="System">
        <mxGraphModel dx="315" dy="273" grid="1" gridSize="10" guides="1" tooltips="1" connect="1" arrows="1" fold="1" page="1" pageScale="1" pageWidth="850" pageHeight="1100" math="0" shadow="0">
            <root>
                <mxCell id="bychbIbanGnkvw9bZJ4n-0"/>
                <mxCell id="bychbIbanGnkvw9bZJ4n-1" parent="bychbIbanGnkvw9bZJ4n-0"/>
                <mxCell id="bychbIbanGnkvw9bZJ4n-9" style="edgeStyle=none;html=1;entryX=0;entryY=0.5;entryDx=0;entryDy=0;shape=flexArrow;" edge="1" parent="bychbIbanGnkvw9bZJ4n-1" source="bychbIbanGnkvw9bZJ4n-2" target="bychbIbanGnkvw9bZJ4n-3">
                    <mxGeometry relative="1" as="geometry"/>
                </mxCell>
                <mxCell id="bychbIbanGnkvw9bZJ4n-2" value="Stage1" style="rounded=1;whiteSpace=wrap;html=1;" vertex="1" parent="bychbIbanGnkvw9bZJ4n-1">
                    <mxGeometry x="120" y="190" width="70" height="130" as="geometry"/>
                </mxCell>
                <mxCell id="bychbIbanGnkvw9bZJ4n-10" style="edgeStyle=none;shape=flexArrow;html=1;" edge="1" parent="bychbIbanGnkvw9bZJ4n-1" source="bychbIbanGnkvw9bZJ4n-3" target="bychbIbanGnkvw9bZJ4n-4">
                    <mxGeometry relative="1" as="geometry"/>
                </mxCell>
                <mxCell id="bychbIbanGnkvw9bZJ4n-3" value="Stage 2" style="rounded=1;whiteSpace=wrap;html=1;" vertex="1" parent="bychbIbanGnkvw9bZJ4n-1">
                    <mxGeometry x="230" y="190" width="70" height="130" as="geometry"/>
                </mxCell>
                <mxCell id="bychbIbanGnkvw9bZJ4n-11" style="edgeStyle=none;shape=flexArrow;html=1;" edge="1" parent="bychbIbanGnkvw9bZJ4n-1" source="bychbIbanGnkvw9bZJ4n-4" target="bychbIbanGnkvw9bZJ4n-5">
                    <mxGeometry relative="1" as="geometry"/>
                </mxCell>
                <mxCell id="bychbIbanGnkvw9bZJ4n-4" value="Stage 3" style="rounded=1;whiteSpace=wrap;html=1;" vertex="1" parent="bychbIbanGnkvw9bZJ4n-1">
                    <mxGeometry x="340" y="190" width="70" height="130" as="geometry"/>
                </mxCell>
                <mxCell id="bychbIbanGnkvw9bZJ4n-12" style="edgeStyle=none;shape=flexArrow;html=1;" edge="1" parent="bychbIbanGnkvw9bZJ4n-1" source="bychbIbanGnkvw9bZJ4n-5" target="bychbIbanGnkvw9bZJ4n-6">
                    <mxGeometry relative="1" as="geometry"/>
                </mxCell>
                <mxCell id="bychbIbanGnkvw9bZJ4n-5" value="Stage 4" style="rounded=1;whiteSpace=wrap;html=1;" vertex="1" parent="bychbIbanGnkvw9bZJ4n-1">
                    <mxGeometry x="440" y="190" width="70" height="130" as="geometry"/>
                </mxCell>
                <mxCell id="bychbIbanGnkvw9bZJ4n-6" value="Stage 5" style="rounded=1;whiteSpace=wrap;html=1;" vertex="1" parent="bychbIbanGnkvw9bZJ4n-1">
                    <mxGeometry x="550" y="190" width="70" height="130" as="geometry"/>
                </mxCell>
                <mxCell id="bychbIbanGnkvw9bZJ4n-13" value="" style="shape=flexArrow;endArrow=classic;html=1;" edge="1" parent="bychbIbanGnkvw9bZJ4n-1" target="bychbIbanGnkvw9bZJ4n-2">
                    <mxGeometry width="50" height="50" relative="1" as="geometry">
                        <mxPoint x="50" y="255" as="sourcePoint"/>
                        <mxPoint x="110" y="250" as="targetPoint"/>
                    </mxGeometry>
                </mxCell>
                <mxCell id="bychbIbanGnkvw9bZJ4n-14" value="" style="shape=flexArrow;endArrow=classic;html=1;" edge="1" parent="bychbIbanGnkvw9bZJ4n-1">
                    <mxGeometry width="50" height="50" relative="1" as="geometry">
                        <mxPoint x="620" y="254.71" as="sourcePoint"/>
                        <mxPoint x="690" y="254.71" as="targetPoint"/>
                    </mxGeometry>
                </mxCell>
            </root>
        </mxGraphModel>
    </diagram>
</mxfile>